<mxfile host="app.diagrams.net" agent="Mozilla/5.0 (Windows NT 10.0; Win64; x64) AppleWebKit/537.36 (KHTML, like Gecko) Chrome/137.0.0.0 Safari/537.36" version="27.0.1">
  <diagram id="R2lEEEUBdFMjLlhIrx00" name="Page-1">
    <mxGraphModel dx="1042" dy="562" grid="1" gridSize="10" guides="1" tooltips="1" connect="1" arrows="1" fold="1" page="1" pageScale="1" pageWidth="850" pageHeight="1100" math="0" shadow="0" extFonts="Permanent Marker^https://fonts.googleapis.com/css?family=Permanent+Marker">
      <root>
        <mxCell id="0" />
        <mxCell id="1" parent="0" />
        <mxCell id="kzdQ3QpgvCW3O9wWs4a_-8" value="euro_home_countries" style="swimlane;whiteSpace=wrap;html=1;" vertex="1" parent="1">
          <mxGeometry x="40" y="120" width="200" height="60" as="geometry" />
        </mxCell>
        <mxCell id="kzdQ3QpgvCW3O9wWs4a_-9" value="ODS Tables&lt;br&gt;Extract via csv" style="text;html=1;align=center;verticalAlign=middle;whiteSpace=wrap;rounded=0;" vertex="1" parent="1">
          <mxGeometry x="30" y="40" width="80" height="30" as="geometry" />
        </mxCell>
        <mxCell id="kzdQ3QpgvCW3O9wWs4a_-10" value="births_per_year" style="swimlane;whiteSpace=wrap;html=1;" vertex="1" parent="1">
          <mxGeometry x="320" y="120" width="200" height="60" as="geometry" />
        </mxCell>
        <mxCell id="kzdQ3QpgvCW3O9wWs4a_-11" value="births_per_yearmonth" style="swimlane;whiteSpace=wrap;html=1;" vertex="1" parent="1">
          <mxGeometry x="600" y="120" width="200" height="60" as="geometry" />
        </mxCell>
        <mxCell id="kzdQ3QpgvCW3O9wWs4a_-12" value="country_codes" style="swimlane;whiteSpace=wrap;html=1;" vertex="1" parent="1">
          <mxGeometry x="40" y="240" width="200" height="60" as="geometry" />
        </mxCell>
        <mxCell id="kzdQ3QpgvCW3O9wWs4a_-13" value="euro_high_level" style="swimlane;whiteSpace=wrap;html=1;" vertex="1" parent="1">
          <mxGeometry x="320" y="240" width="200" height="60" as="geometry" />
        </mxCell>
        <mxCell id="kzdQ3QpgvCW3O9wWs4a_-14" value="euro_matches" style="swimlane;whiteSpace=wrap;html=1;" vertex="1" parent="1">
          <mxGeometry x="600" y="240" width="200" height="60" as="geometry" />
        </mxCell>
        <mxCell id="kzdQ3QpgvCW3O9wWs4a_-15" value="world_cup_high_level" style="swimlane;whiteSpace=wrap;html=1;" vertex="1" parent="1">
          <mxGeometry x="40" y="360" width="200" height="60" as="geometry" />
        </mxCell>
        <mxCell id="kzdQ3QpgvCW3O9wWs4a_-16" value="world_cup_matches" style="swimlane;whiteSpace=wrap;html=1;" vertex="1" parent="1">
          <mxGeometry x="320" y="360" width="200" height="60" as="geometry" />
        </mxCell>
        <mxCell id="kzdQ3QpgvCW3O9wWs4a_-17" value="DWH Tables&lt;br&gt;Transform/load via ODS" style="text;html=1;align=center;verticalAlign=middle;whiteSpace=wrap;rounded=0;" vertex="1" parent="1">
          <mxGeometry x="30" y="490" width="80" height="30" as="geometry" />
        </mxCell>
        <mxCell id="kzdQ3QpgvCW3O9wWs4a_-18" value="dim_country" style="swimlane;whiteSpace=wrap;html=1;" vertex="1" parent="1">
          <mxGeometry x="40" y="560" width="200" height="60" as="geometry" />
        </mxCell>
        <mxCell id="kzdQ3QpgvCW3O9wWs4a_-19" value="dim_round_codes" style="swimlane;whiteSpace=wrap;html=1;" vertex="1" parent="1">
          <mxGeometry x="320" y="560" width="200" height="60" as="geometry" />
        </mxCell>
        <mxCell id="kzdQ3QpgvCW3O9wWs4a_-20" value="fact_euro_stats" style="swimlane;whiteSpace=wrap;html=1;" vertex="1" parent="1">
          <mxGeometry x="600" y="560" width="200" height="60" as="geometry" />
        </mxCell>
        <mxCell id="kzdQ3QpgvCW3O9wWs4a_-21" value="fact_world_cup_stats" style="swimlane;whiteSpace=wrap;html=1;" vertex="1" parent="1">
          <mxGeometry x="600" y="680" width="200" height="60" as="geometry" />
        </mxCell>
        <mxCell id="kzdQ3QpgvCW3O9wWs4a_-22" value="dim_month" style="swimlane;whiteSpace=wrap;html=1;" vertex="1" parent="1">
          <mxGeometry x="40" y="680" width="200" height="60" as="geometry" />
        </mxCell>
        <mxCell id="kzdQ3QpgvCW3O9wWs4a_-23" value="fact_births" style="swimlane;whiteSpace=wrap;html=1;" vertex="1" parent="1">
          <mxGeometry x="600" y="800" width="200" height="60" as="geometry" />
        </mxCell>
        <mxCell id="kzdQ3QpgvCW3O9wWs4a_-24" value="fact_tournaments_high_level" style="swimlane;whiteSpace=wrap;html=1;" vertex="1" parent="1">
          <mxGeometry x="320" y="680" width="200" height="60" as="geometry" />
        </mxCell>
        <mxCell id="kzdQ3QpgvCW3O9wWs4a_-26" value="Data Products&lt;br&gt;load via DWH" style="text;html=1;align=center;verticalAlign=middle;whiteSpace=wrap;rounded=0;" vertex="1" parent="1">
          <mxGeometry x="30" y="950" width="80" height="30" as="geometry" />
        </mxCell>
        <mxCell id="kzdQ3QpgvCW3O9wWs4a_-27" value="birth_stats_percentage" style="swimlane;whiteSpace=wrap;html=1;" vertex="1" parent="1">
          <mxGeometry x="40" y="1040" width="200" height="60" as="geometry" />
        </mxCell>
        <mxCell id="kzdQ3QpgvCW3O9wWs4a_-28" value="dp_births_figures" style="swimlane;whiteSpace=wrap;html=1;" vertex="1" parent="1">
          <mxGeometry x="320" y="1040" width="200" height="60" as="geometry" />
        </mxCell>
        <mxCell id="kzdQ3QpgvCW3O9wWs4a_-29" value="dp_euro_stats_round" style="swimlane;whiteSpace=wrap;html=1;" vertex="1" parent="1">
          <mxGeometry x="600" y="1040" width="200" height="60" as="geometry" />
        </mxCell>
        <mxCell id="kzdQ3QpgvCW3O9wWs4a_-30" value="dp_stats_round" style="swimlane;whiteSpace=wrap;html=1;" vertex="1" parent="1">
          <mxGeometry x="40" y="1160" width="200" height="60" as="geometry" />
        </mxCell>
        <mxCell id="kzdQ3QpgvCW3O9wWs4a_-31" value="dp_world_cup_stats_round" style="swimlane;whiteSpace=wrap;html=1;" vertex="1" parent="1">
          <mxGeometry x="600" y="1160" width="200" height="60" as="geometry" />
        </mxCell>
        <mxCell id="kzdQ3QpgvCW3O9wWs4a_-32" value="" style="endArrow=none;html=1;rounded=0;fillColor=#f8cecc;strokeColor=#b85450;" edge="1" parent="1">
          <mxGeometry width="50" height="50" relative="1" as="geometry">
            <mxPoint x="80" y="1140" as="sourcePoint" />
            <mxPoint x="180" y="1010" as="targetPoint" />
          </mxGeometry>
        </mxCell>
        <mxCell id="kzdQ3QpgvCW3O9wWs4a_-35" value="fact_euro_stats" style="shape=table;startSize=30;container=1;collapsible=1;childLayout=tableLayout;fixedRows=1;rowLines=0;fontStyle=1;align=center;resizeLast=1;" vertex="1" parent="1">
          <mxGeometry x="300" y="1665" width="250" height="130" as="geometry" />
        </mxCell>
        <mxCell id="kzdQ3QpgvCW3O9wWs4a_-36" value="" style="shape=partialRectangle;collapsible=0;dropTarget=0;pointerEvents=0;fillColor=none;points=[[0,0.5],[1,0.5]];portConstraint=eastwest;top=0;left=0;right=0;bottom=1;" vertex="1" parent="kzdQ3QpgvCW3O9wWs4a_-35">
          <mxGeometry y="30" width="250" height="30" as="geometry" />
        </mxCell>
        <mxCell id="kzdQ3QpgvCW3O9wWs4a_-37" value="PK" style="shape=partialRectangle;overflow=hidden;connectable=0;fillColor=none;top=0;left=0;bottom=0;right=0;fontStyle=1;" vertex="1" parent="kzdQ3QpgvCW3O9wWs4a_-36">
          <mxGeometry width="30" height="30" as="geometry">
            <mxRectangle width="30" height="30" as="alternateBounds" />
          </mxGeometry>
        </mxCell>
        <mxCell id="kzdQ3QpgvCW3O9wWs4a_-38" value="(year, country_dim_id) NOT NULL " style="shape=partialRectangle;overflow=hidden;connectable=0;fillColor=none;top=0;left=0;bottom=0;right=0;align=left;spacingLeft=6;fontStyle=5;" vertex="1" parent="kzdQ3QpgvCW3O9wWs4a_-36">
          <mxGeometry x="30" width="220" height="30" as="geometry">
            <mxRectangle width="220" height="30" as="alternateBounds" />
          </mxGeometry>
        </mxCell>
        <mxCell id="kzdQ3QpgvCW3O9wWs4a_-39" value="" style="shape=partialRectangle;collapsible=0;dropTarget=0;pointerEvents=0;fillColor=none;points=[[0,0.5],[1,0.5]];portConstraint=eastwest;top=0;left=0;right=0;bottom=0;" vertex="1" parent="kzdQ3QpgvCW3O9wWs4a_-35">
          <mxGeometry y="60" width="250" height="30" as="geometry" />
        </mxCell>
        <mxCell id="kzdQ3QpgvCW3O9wWs4a_-40" value="FK" style="shape=partialRectangle;overflow=hidden;connectable=0;fillColor=none;top=0;left=0;bottom=0;right=0;" vertex="1" parent="kzdQ3QpgvCW3O9wWs4a_-39">
          <mxGeometry width="30" height="30" as="geometry">
            <mxRectangle width="30" height="30" as="alternateBounds" />
          </mxGeometry>
        </mxCell>
        <mxCell id="kzdQ3QpgvCW3O9wWs4a_-41" value="country_dim_id" style="shape=partialRectangle;overflow=hidden;connectable=0;fillColor=none;top=0;left=0;bottom=0;right=0;align=left;spacingLeft=6;" vertex="1" parent="kzdQ3QpgvCW3O9wWs4a_-39">
          <mxGeometry x="30" width="220" height="30" as="geometry">
            <mxRectangle width="220" height="30" as="alternateBounds" />
          </mxGeometry>
        </mxCell>
        <mxCell id="kzdQ3QpgvCW3O9wWs4a_-42" value="" style="shape=partialRectangle;collapsible=0;dropTarget=0;pointerEvents=0;fillColor=none;points=[[0,0.5],[1,0.5]];portConstraint=eastwest;top=0;left=0;right=0;bottom=0;" vertex="1" parent="kzdQ3QpgvCW3O9wWs4a_-35">
          <mxGeometry y="90" width="250" height="30" as="geometry" />
        </mxCell>
        <mxCell id="kzdQ3QpgvCW3O9wWs4a_-43" value="FK" style="shape=partialRectangle;overflow=hidden;connectable=0;fillColor=none;top=0;left=0;bottom=0;right=0;" vertex="1" parent="kzdQ3QpgvCW3O9wWs4a_-42">
          <mxGeometry width="30" height="30" as="geometry">
            <mxRectangle width="30" height="30" as="alternateBounds" />
          </mxGeometry>
        </mxCell>
        <mxCell id="kzdQ3QpgvCW3O9wWs4a_-44" value="round_codes_dim_id" style="shape=partialRectangle;overflow=hidden;connectable=0;fillColor=none;top=0;left=0;bottom=0;right=0;align=left;spacingLeft=6;" vertex="1" parent="kzdQ3QpgvCW3O9wWs4a_-42">
          <mxGeometry x="30" width="220" height="30" as="geometry">
            <mxRectangle width="220" height="30" as="alternateBounds" />
          </mxGeometry>
        </mxCell>
        <mxCell id="kzdQ3QpgvCW3O9wWs4a_-45" value="dim_country" style="shape=table;startSize=30;container=1;collapsible=1;childLayout=tableLayout;fixedRows=1;rowLines=0;fontStyle=1;align=center;resizeLast=1;" vertex="1" parent="1">
          <mxGeometry x="40" y="1505" width="250" height="100" as="geometry" />
        </mxCell>
        <mxCell id="kzdQ3QpgvCW3O9wWs4a_-46" value="" style="shape=partialRectangle;collapsible=0;dropTarget=0;pointerEvents=0;fillColor=none;points=[[0,0.5],[1,0.5]];portConstraint=eastwest;top=0;left=0;right=0;bottom=1;" vertex="1" parent="kzdQ3QpgvCW3O9wWs4a_-45">
          <mxGeometry y="30" width="250" height="30" as="geometry" />
        </mxCell>
        <mxCell id="kzdQ3QpgvCW3O9wWs4a_-47" value="PK" style="shape=partialRectangle;overflow=hidden;connectable=0;fillColor=none;top=0;left=0;bottom=0;right=0;fontStyle=1;" vertex="1" parent="kzdQ3QpgvCW3O9wWs4a_-46">
          <mxGeometry width="30" height="30" as="geometry">
            <mxRectangle width="30" height="30" as="alternateBounds" />
          </mxGeometry>
        </mxCell>
        <mxCell id="kzdQ3QpgvCW3O9wWs4a_-48" value="country_id int NOT NULL " style="shape=partialRectangle;overflow=hidden;connectable=0;fillColor=none;top=0;left=0;bottom=0;right=0;align=left;spacingLeft=6;fontStyle=5;" vertex="1" parent="kzdQ3QpgvCW3O9wWs4a_-46">
          <mxGeometry x="30" width="220" height="30" as="geometry">
            <mxRectangle width="220" height="30" as="alternateBounds" />
          </mxGeometry>
        </mxCell>
        <mxCell id="kzdQ3QpgvCW3O9wWs4a_-49" value="" style="shape=partialRectangle;collapsible=0;dropTarget=0;pointerEvents=0;fillColor=none;points=[[0,0.5],[1,0.5]];portConstraint=eastwest;top=0;left=0;right=0;bottom=0;" vertex="1" parent="kzdQ3QpgvCW3O9wWs4a_-45">
          <mxGeometry y="60" width="250" height="30" as="geometry" />
        </mxCell>
        <mxCell id="kzdQ3QpgvCW3O9wWs4a_-50" value="" style="shape=partialRectangle;overflow=hidden;connectable=0;fillColor=none;top=0;left=0;bottom=0;right=0;" vertex="1" parent="kzdQ3QpgvCW3O9wWs4a_-49">
          <mxGeometry width="30" height="30" as="geometry">
            <mxRectangle width="30" height="30" as="alternateBounds" />
          </mxGeometry>
        </mxCell>
        <mxCell id="kzdQ3QpgvCW3O9wWs4a_-51" value="" style="shape=partialRectangle;overflow=hidden;connectable=0;fillColor=none;top=0;left=0;bottom=0;right=0;align=left;spacingLeft=6;" vertex="1" parent="kzdQ3QpgvCW3O9wWs4a_-49">
          <mxGeometry x="30" width="220" height="30" as="geometry">
            <mxRectangle width="220" height="30" as="alternateBounds" />
          </mxGeometry>
        </mxCell>
        <mxCell id="kzdQ3QpgvCW3O9wWs4a_-52" value="dim_round_codes" style="shape=table;startSize=30;container=1;collapsible=1;childLayout=tableLayout;fixedRows=1;rowLines=0;fontStyle=1;align=center;resizeLast=1;" vertex="1" parent="1">
          <mxGeometry x="560" y="1505" width="250" height="100" as="geometry" />
        </mxCell>
        <mxCell id="kzdQ3QpgvCW3O9wWs4a_-53" value="" style="shape=partialRectangle;collapsible=0;dropTarget=0;pointerEvents=0;fillColor=none;points=[[0,0.5],[1,0.5]];portConstraint=eastwest;top=0;left=0;right=0;bottom=1;" vertex="1" parent="kzdQ3QpgvCW3O9wWs4a_-52">
          <mxGeometry y="30" width="250" height="30" as="geometry" />
        </mxCell>
        <mxCell id="kzdQ3QpgvCW3O9wWs4a_-54" value="PK" style="shape=partialRectangle;overflow=hidden;connectable=0;fillColor=none;top=0;left=0;bottom=0;right=0;fontStyle=1;" vertex="1" parent="kzdQ3QpgvCW3O9wWs4a_-53">
          <mxGeometry width="30" height="30" as="geometry">
            <mxRectangle width="30" height="30" as="alternateBounds" />
          </mxGeometry>
        </mxCell>
        <mxCell id="kzdQ3QpgvCW3O9wWs4a_-55" value="dim_id int NOT NULL " style="shape=partialRectangle;overflow=hidden;connectable=0;fillColor=none;top=0;left=0;bottom=0;right=0;align=left;spacingLeft=6;fontStyle=5;" vertex="1" parent="kzdQ3QpgvCW3O9wWs4a_-53">
          <mxGeometry x="30" width="220" height="30" as="geometry">
            <mxRectangle width="220" height="30" as="alternateBounds" />
          </mxGeometry>
        </mxCell>
        <mxCell id="kzdQ3QpgvCW3O9wWs4a_-56" value="" style="shape=partialRectangle;collapsible=0;dropTarget=0;pointerEvents=0;fillColor=none;points=[[0,0.5],[1,0.5]];portConstraint=eastwest;top=0;left=0;right=0;bottom=0;" vertex="1" parent="kzdQ3QpgvCW3O9wWs4a_-52">
          <mxGeometry y="60" width="250" height="30" as="geometry" />
        </mxCell>
        <mxCell id="kzdQ3QpgvCW3O9wWs4a_-57" value="" style="shape=partialRectangle;overflow=hidden;connectable=0;fillColor=none;top=0;left=0;bottom=0;right=0;" vertex="1" parent="kzdQ3QpgvCW3O9wWs4a_-56">
          <mxGeometry width="30" height="30" as="geometry">
            <mxRectangle width="30" height="30" as="alternateBounds" />
          </mxGeometry>
        </mxCell>
        <mxCell id="kzdQ3QpgvCW3O9wWs4a_-58" value="" style="shape=partialRectangle;overflow=hidden;connectable=0;fillColor=none;top=0;left=0;bottom=0;right=0;align=left;spacingLeft=6;" vertex="1" parent="kzdQ3QpgvCW3O9wWs4a_-56">
          <mxGeometry x="30" width="220" height="30" as="geometry">
            <mxRectangle width="220" height="30" as="alternateBounds" />
          </mxGeometry>
        </mxCell>
        <mxCell id="kzdQ3QpgvCW3O9wWs4a_-59" value="" style="edgeStyle=entityRelationEdgeStyle;endArrow=ERzeroToMany;startArrow=ERone;endFill=1;startFill=0;entryX=0;entryY=0.5;entryDx=0;entryDy=0;exitX=1;exitY=0.5;exitDx=0;exitDy=0;" edge="1" parent="1" source="kzdQ3QpgvCW3O9wWs4a_-46" target="kzdQ3QpgvCW3O9wWs4a_-39">
          <mxGeometry width="100" height="100" relative="1" as="geometry">
            <mxPoint x="160" y="1655" as="sourcePoint" />
            <mxPoint x="240" y="1685" as="targetPoint" />
            <Array as="points">
              <mxPoint x="-80" y="1370" />
            </Array>
          </mxGeometry>
        </mxCell>
        <mxCell id="kzdQ3QpgvCW3O9wWs4a_-60" value="" style="edgeStyle=entityRelationEdgeStyle;endArrow=ERzeroToMany;startArrow=ERone;endFill=1;startFill=0;entryX=1;entryY=0.5;entryDx=0;entryDy=0;exitX=0;exitY=0.5;exitDx=0;exitDy=0;" edge="1" parent="1" source="kzdQ3QpgvCW3O9wWs4a_-53" target="kzdQ3QpgvCW3O9wWs4a_-42">
          <mxGeometry width="100" height="100" relative="1" as="geometry">
            <mxPoint x="300" y="1560" as="sourcePoint" />
            <mxPoint x="310" y="1750" as="targetPoint" />
            <Array as="points">
              <mxPoint x="-70" y="1380" />
            </Array>
          </mxGeometry>
        </mxCell>
        <mxCell id="kzdQ3QpgvCW3O9wWs4a_-61" value="fact_world_cup_stats" style="shape=table;startSize=30;container=1;collapsible=1;childLayout=tableLayout;fixedRows=1;rowLines=0;fontStyle=1;align=center;resizeLast=1;" vertex="1" parent="1">
          <mxGeometry x="300" y="1290" width="250" height="130" as="geometry" />
        </mxCell>
        <mxCell id="kzdQ3QpgvCW3O9wWs4a_-62" value="" style="shape=partialRectangle;collapsible=0;dropTarget=0;pointerEvents=0;fillColor=none;points=[[0,0.5],[1,0.5]];portConstraint=eastwest;top=0;left=0;right=0;bottom=1;" vertex="1" parent="kzdQ3QpgvCW3O9wWs4a_-61">
          <mxGeometry y="30" width="250" height="30" as="geometry" />
        </mxCell>
        <mxCell id="kzdQ3QpgvCW3O9wWs4a_-63" value="PK" style="shape=partialRectangle;overflow=hidden;connectable=0;fillColor=none;top=0;left=0;bottom=0;right=0;fontStyle=1;" vertex="1" parent="kzdQ3QpgvCW3O9wWs4a_-62">
          <mxGeometry width="30" height="30" as="geometry">
            <mxRectangle width="30" height="30" as="alternateBounds" />
          </mxGeometry>
        </mxCell>
        <mxCell id="kzdQ3QpgvCW3O9wWs4a_-64" value="(year, country_dim_id) NOT NULL " style="shape=partialRectangle;overflow=hidden;connectable=0;fillColor=none;top=0;left=0;bottom=0;right=0;align=left;spacingLeft=6;fontStyle=5;" vertex="1" parent="kzdQ3QpgvCW3O9wWs4a_-62">
          <mxGeometry x="30" width="220" height="30" as="geometry">
            <mxRectangle width="220" height="30" as="alternateBounds" />
          </mxGeometry>
        </mxCell>
        <mxCell id="kzdQ3QpgvCW3O9wWs4a_-65" value="" style="shape=partialRectangle;collapsible=0;dropTarget=0;pointerEvents=0;fillColor=none;points=[[0,0.5],[1,0.5]];portConstraint=eastwest;top=0;left=0;right=0;bottom=0;" vertex="1" parent="kzdQ3QpgvCW3O9wWs4a_-61">
          <mxGeometry y="60" width="250" height="30" as="geometry" />
        </mxCell>
        <mxCell id="kzdQ3QpgvCW3O9wWs4a_-66" value="FK" style="shape=partialRectangle;overflow=hidden;connectable=0;fillColor=none;top=0;left=0;bottom=0;right=0;" vertex="1" parent="kzdQ3QpgvCW3O9wWs4a_-65">
          <mxGeometry width="30" height="30" as="geometry">
            <mxRectangle width="30" height="30" as="alternateBounds" />
          </mxGeometry>
        </mxCell>
        <mxCell id="kzdQ3QpgvCW3O9wWs4a_-67" value="country_dim_id" style="shape=partialRectangle;overflow=hidden;connectable=0;fillColor=none;top=0;left=0;bottom=0;right=0;align=left;spacingLeft=6;" vertex="1" parent="kzdQ3QpgvCW3O9wWs4a_-65">
          <mxGeometry x="30" width="220" height="30" as="geometry">
            <mxRectangle width="220" height="30" as="alternateBounds" />
          </mxGeometry>
        </mxCell>
        <mxCell id="kzdQ3QpgvCW3O9wWs4a_-68" value="" style="shape=partialRectangle;collapsible=0;dropTarget=0;pointerEvents=0;fillColor=none;points=[[0,0.5],[1,0.5]];portConstraint=eastwest;top=0;left=0;right=0;bottom=0;" vertex="1" parent="kzdQ3QpgvCW3O9wWs4a_-61">
          <mxGeometry y="90" width="250" height="30" as="geometry" />
        </mxCell>
        <mxCell id="kzdQ3QpgvCW3O9wWs4a_-69" value="FK" style="shape=partialRectangle;overflow=hidden;connectable=0;fillColor=none;top=0;left=0;bottom=0;right=0;" vertex="1" parent="kzdQ3QpgvCW3O9wWs4a_-68">
          <mxGeometry width="30" height="30" as="geometry">
            <mxRectangle width="30" height="30" as="alternateBounds" />
          </mxGeometry>
        </mxCell>
        <mxCell id="kzdQ3QpgvCW3O9wWs4a_-70" value="round_codes_dim_id" style="shape=partialRectangle;overflow=hidden;connectable=0;fillColor=none;top=0;left=0;bottom=0;right=0;align=left;spacingLeft=6;" vertex="1" parent="kzdQ3QpgvCW3O9wWs4a_-68">
          <mxGeometry x="30" width="220" height="30" as="geometry">
            <mxRectangle width="220" height="30" as="alternateBounds" />
          </mxGeometry>
        </mxCell>
        <mxCell id="kzdQ3QpgvCW3O9wWs4a_-71" value="" style="edgeStyle=entityRelationEdgeStyle;endArrow=ERzeroToMany;startArrow=ERone;endFill=1;startFill=0;entryX=0;entryY=0.5;entryDx=0;entryDy=0;" edge="1" parent="1" target="kzdQ3QpgvCW3O9wWs4a_-65">
          <mxGeometry width="100" height="100" relative="1" as="geometry">
            <mxPoint x="290" y="1550" as="sourcePoint" />
            <mxPoint x="310" y="1750" as="targetPoint" />
            <Array as="points">
              <mxPoint x="-70" y="1380" />
            </Array>
          </mxGeometry>
        </mxCell>
        <mxCell id="kzdQ3QpgvCW3O9wWs4a_-72" value="" style="edgeStyle=entityRelationEdgeStyle;endArrow=ERzeroToMany;startArrow=ERone;endFill=1;startFill=0;entryX=1;entryY=0.5;entryDx=0;entryDy=0;exitX=0;exitY=0.5;exitDx=0;exitDy=0;" edge="1" parent="1" source="kzdQ3QpgvCW3O9wWs4a_-53" target="kzdQ3QpgvCW3O9wWs4a_-68">
          <mxGeometry width="100" height="100" relative="1" as="geometry">
            <mxPoint x="570" y="1560" as="sourcePoint" />
            <mxPoint x="560" y="1780" as="targetPoint" />
            <Array as="points">
              <mxPoint x="-60" y="1390" />
            </Array>
          </mxGeometry>
        </mxCell>
      </root>
    </mxGraphModel>
  </diagram>
</mxfile>
